<svg xmlns="http://www.w3.org/2000/svg" viewBox="0 0 640 480" role="img" aria-labelledby="title desc">
  <title id="title">Branch administrator illustration</title>
  <desc id="desc">A stylized illustration of a branch administrator reviewing digital records.</desc>
  <defs>
    <linearGradient id="bg" x1="0" y1="0" x2="1" y2="1">
      <stop offset="0%" stop-color="#0d1324"/>
      <stop offset="100%" stop-color="#1c2d4d"/>
    </linearGradient>
    <linearGradient id="card" x1="0" y1="0" x2="1" y2="1">
      <stop offset="0%" stop-color="#ffffff" stop-opacity=".92"/>
      <stop offset="100%" stop-color="#dce8ff" stop-opacity=".9"/>
    </linearGradient>
  </defs>
  <rect width="640" height="480" rx="36" fill="url(#bg)"/>
  <circle cx="124" cy="98" r="82" fill="#f5c15c" opacity=".16"/>
  <circle cx="530" cy="386" r="110" fill="#7d61ff" opacity=".16"/>
  <rect x="66" y="88" width="508" height="304" rx="28" fill="#101a31" stroke="#233559" stroke-width="2"/>
  <rect x="96" y="118" width="188" height="248" rx="22" fill="url(#card)"/>
  <rect x="316" y="118" width="228" height="76" rx="18" fill="#14213f"/>
  <rect x="316" y="212" width="228" height="154" rx="20" fill="#13203a"/>
  <circle cx="190" cy="183" r="44" fill="#f2b894"/>
  <path d="M150 170c10-34 70-43 88 4-11 8-26 12-43 12-17 0-33-5-45-16Z" fill="#11192d"/>
  <path d="M153 247c15-29 62-42 96-18 18 13 29 34 29 58v34h-176v-29c0-18 20-36 51-45Z" fill="#5a7fff"/>
  <rect x="336" y="138" width="92" height="10" rx="5" fill="#d7def2"/>
  <rect x="336" y="158" width="142" height="10" rx="5" fill="#8ba3d2"/>
  <rect x="336" y="232" width="188" height="14" rx="7" fill="#f5c15c"/>
  <rect x="336" y="260" width="164" height="12" rx="6" fill="#d7def2"/>
  <rect x="336" y="284" width="148" height="12" rx="6" fill="#9eb2d8"/>
  <rect x="336" y="312" width="102" height="12" rx="6" fill="#9eb2d8"/>
  <rect x="450" y="306" width="62" height="36" rx="12" fill="#243962"/>
  <path d="M467 323h28" stroke="#ffffff" stroke-width="6" stroke-linecap="round"/>
</svg>
