<svg xmlns="http://www.w3.org/2000/svg" viewBox="0 0 640 480" role="img" aria-labelledby="title desc">
  <title id="title">District leader illustration</title>
  <desc id="desc">A stylized illustration of a district leader working with reporting dashboards.</desc>
  <defs>
    <linearGradient id="bg2" x1="0" y1="0" x2="1" y2="1">
      <stop offset="0%" stop-color="#121a30"/>
      <stop offset="100%" stop-color="#26395e"/>
    </linearGradient>
  </defs>
  <rect width="640" height="480" rx="36" fill="url(#bg2)"/>
  <circle cx="102" cy="378" r="102" fill="#f5c15c" opacity=".13"/>
  <circle cx="560" cy="94" r="88" fill="#62c6ff" opacity=".14"/>
  <rect x="74" y="94" width="492" height="292" rx="28" fill="#0f172a" stroke="#2d456f" stroke-width="2"/>
  <rect x="102" y="124" width="198" height="234" rx="22" fill="#13203a"/>
  <rect x="326" y="124" width="210" height="102" rx="22" fill="#14213f"/>
  <rect x="326" y="244" width="210" height="114" rx="22" fill="#14213f"/>
  <circle cx="200" cy="176" r="42" fill="#d99a77"/>
  <path d="M160 169c14-30 66-42 84 0-10 12-31 19-50 19-15 0-25-5-34-19Z" fill="#1b1120"/>
  <path d="M144 312c8-48 43-80 86-80s77 33 86 80v18H144z" fill="#7d61ff"/>
  <rect x="352" y="148" width="102" height="12" rx="6" fill="#dce5f7"/>
  <rect x="352" y="171" width="152" height="11" rx="5.5" fill="#8ba3d2"/>
  <path d="M352 284c26-10 41-32 69-32 20 0 35 8 49 20 14 12 23 26 49 26" fill="none" stroke="#f5c15c" stroke-width="10" stroke-linecap="round"/>
  <circle cx="352" cy="284" r="7" fill="#f5c15c"/>
  <circle cx="421" cy="252" r="7" fill="#f5c15c"/>
  <circle cx="470" cy="272" r="7" fill="#f5c15c"/>
  <circle cx="519" cy="298" r="7" fill="#f5c15c"/>
  <rect x="352" y="316" width="140" height="12" rx="6" fill="#8ba3d2"/>
  <rect x="352" y="338" width="108" height="12" rx="6" fill="#dce5f7"/>
</svg>
